<svg width="24" height="24" viewBox="0 0 24 24" fill="none" xmlns="http://www.w3.org/2000/svg">
  <mask id="mask0_25298_38994" style="mask-type:alpha" maskUnits="userSpaceOnUse" x="0" y="0" width="24" height="24">
    <rect width="24" height="24" fill="#D9D9D9"/>
  </mask>
  <g mask="url(#mask0_25298_38994)">
    <path d="M12 13.5027L8.8306 16.6721C8.63024 16.8725 8.37523 16.9727 8.06557 16.9727C7.75592 16.9727 7.50091 16.8725 7.30055 16.6721C7.10018 16.4718 7 16.2168 7 15.9071C7 15.5975 7.10018 15.3424 7.30055 15.1421L10.4699 11.9727L7.30055 8.8306C7.10018 8.63024 7 8.37523 7 8.06557C7 7.75592 7.10018 7.50091 7.30055 7.30055C7.50091 7.10018 7.75592 7 8.06557 7C8.37523 7 8.63024 7.10018 8.8306 7.30055L12 10.4699L15.1421 7.30055C15.3424 7.10018 15.5975 7 15.9071 7C16.2168 7 16.4718 7.10018 16.6721 7.30055C16.8907 7.51913 17 7.77869 17 8.07923C17 8.37978 16.8907 8.63024 16.6721 8.8306L13.5027 11.9727L16.6721 15.1421C16.8725 15.3424 16.9727 15.5975 16.9727 15.9071C16.9727 16.2168 16.8725 16.4718 16.6721 16.6721C16.4536 16.8907 16.194 17 15.8934 17C15.5929 17 15.3424 16.8907 15.1421 16.6721L12 13.5027Z" fill="#333333"/>
  </g>
</svg>
